<svg width="800" height="400" viewBox="0 0 800 400" xmlns="http://www.w3.org/2000/svg" role="img" aria-labelledby="title desc">
  <title id="title">Covenant rainbow</title>
  <desc id="desc">Rainbow over gentle hills and water</desc>
  <defs>
    <linearGradient id="water" x1="0%" y1="0%" x2="0%" y2="100%">
      <stop offset="0%" stop-color="#9fd3ff"/>
      <stop offset="100%" stop-color="#4a8bcf"/>
    </linearGradient>
  </defs>
  <rect width="800" height="400" fill="#eef5ff"/>
  <path d="M0 260 Q200 200 400 260 T800 260 L800 400 L0 400 Z" fill="#d3e7b5"/>
  <path d="M0 310 Q220 240 420 310 T800 310 L800 400 L0 400 Z" fill="#b1d29a"/>
  <rect y="260" width="800" height="140" fill="url(#water)" opacity="0.8"/>
  <g fill="none" stroke-width="18" opacity="0.9">
    <path d="M120 280 A250 250 0 0 1 680 280" stroke="#ff6b6b"/>
    <path d="M140 280 A230 230 0 0 1 660 280" stroke="#ffb347"/>
    <path d="M160 280 A210 210 0 0 1 640 280" stroke="#ffe66d"/>
    <path d="M180 280 A190 190 0 0 1 620 280" stroke="#6bd76b"/>
    <path d="M200 280 A170 170 0 0 1 600 280" stroke="#5bc0ff"/>
    <path d="M220 280 A150 150 0 0 1 580 280" stroke="#8b7bff"/>
  </g>
  <g stroke="#6b4f3a" stroke-width="12" stroke-linecap="round" opacity="0.9">
    <!-- Latin cross: shorter top arm, longer stem -->
    <line x1="400" y1="185" x2="400" y2="265"/>
    <line x1="375" y1="215" x2="425" y2="215"/>
  </g>
</svg>
