<svg xmlns="http://www.w3.org/2000/svg" viewBox="0 0 960 540" role="img" aria-labelledby="title desc">
  <title id="title">Placeholder Biblical scene</title>
  <desc id="desc">Stylized placeholder illustration for Verbum Quest, showing mountains, a river, a rising sun, and a cross.</desc>
  <defs>
    <linearGradient id="sky" x1="0" x2="0" y1="0" y2="1">
      <stop offset="0%" stop-color="#0f1a33"/>
      <stop offset="60%" stop-color="#1b2b50"/>
      <stop offset="100%" stop-color="#0c1429"/>
    </linearGradient>
    <linearGradient id="sun" x1="0" x2="0" y1="0" y2="1">
      <stop offset="0%" stop-color="#f0c66a" stop-opacity="0.95"/>
      <stop offset="100%" stop-color="#c7943a" stop-opacity="0.85"/>
    </linearGradient>
    <linearGradient id="water" x1="0" x2="1" y1="0" y2="1">
      <stop offset="0%" stop-color="#1a3a68" stop-opacity="0.8"/>
      <stop offset="100%" stop-color="#0f2341" stop-opacity="0.9"/>
    </linearGradient>
    <linearGradient id="hill" x1="0" x2="1" y1="0" y2="1">
      <stop offset="0%" stop-color="#30405c"/>
      <stop offset="100%" stop-color="#1c283d"/>
    </linearGradient>
  </defs>
  <rect width="960" height="540" fill="url(#sky)"/>
  <circle cx="160" cy="120" r="90" fill="url(#sun)" opacity="0.9"/>
  <path d="M0 340 Q180 270 320 320 T640 310 T960 260 L960 540 L0 540 Z" fill="#253550" opacity="0.7"/>
  <path d="M0 360 Q200 300 380 340 T720 320 T960 300 L960 540 L0 540 Z" fill="url(#hill)"/>
  <path d="M0 410 C160 420 260 440 420 440 S720 410 960 440 L960 540 L0 540 Z" fill="url(#water)"/>
  <path d="M520 260 L560 260 L540 160 Z" fill="#d8a34b" opacity="0.8"/>
  <path d="M520 260 L540 190 L560 260 Z" fill="#e6c07a" opacity="0.8"/>
  <rect x="620" y="210" width="10" height="95" fill="#c7943a"/>
  <rect x="620" y="180" width="10" height="110" fill="#f0c66a"/>
  <rect x="600" y="210" width="50" height="10" fill="#f0c66a"/>
  <path d="M140 430 C200 400 300 400 360 430 S520 470 580 440 S760 390 860 430 L860 540 L140 540 Z" fill="#0d1a33" opacity="0.6"/>
  <circle cx="740" cy="120" r="18" fill="#f0c66a" opacity="0.45"/>
  <circle cx="820" cy="90" r="10" fill="#f0c66a" opacity="0.35"/>
  <circle cx="680" cy="80" r="8" fill="#f0c66a" opacity="0.3"/>
</svg>
